P2
64  64
64769
0
0
0
0
0
0
0
0
0
0
0
0
0
0
0
0
0
0
0
0
0
0
0
0
0
0
0
0
0
0
0
0
0
0
0
0
0
0
0
0
0
0
0
0
0
0
0
0
0
0
0
0
0
0
0
0
0
0
0
0
0
0
0
0
0
0
0
0
0
0
0
0
0
0
0
0
0
0
0
0
0
0
0
0
0
0
0
0
0
0
0
0
0
0
0
0
0
0
0
0
0
0
0
0
0
0
0
0
0
0
0
0
0
0
0
0
0
0
0
0
0
0
0
0
0
0
0
0
0
0
0
0
0
0
0
0
0
0
0
0
0
0
0
0
0
0
0
0
0
0
0
0
0
0
0
0
0
0
0
0
0
0
0
0
0
0
0
0
0
0
0
0
0
0
0
0
0
0
0
0
0
0
0
0
0
0
0
0
0
0
0
0
0
0
0
0
0
0
0
0
0
0
0
0
0
0
0
0
0
0
0
0
0
0
0
0
0
0
0
0
0
0
0
0
0
0
0
0
0
0
0
0
0
0
0
0
0
0
0
0
0
0
0
0
0
0
0
0
0
0
0
0
0
0
0
0
0
0
0
0
0
0
0
0
0
0
0
0
0
0
0
0
0
0
0
0
0
0
0
0
0
0
0
0
0
0
0
0
0
0
0
0
0
0
0
0
0
0
0
0
0
0
0
0
0
0
0
0
0
0
0
0
0
0
0
0
0
0
0
0
0
0
0
0
0
0
0
0
0
0
0
0
0
0
0
0
0
0
0
0
0
0
0
0
0
0
0
0
0
0
0
0
0
0
0
0
0
0
0
0
0
0
0
0
0
0
0
0
0
0
0
0
0
0
0
0
0
0
0
0
0
0
0
0
0
0
0
0
0
0
0
0
0
0
0
0
0
0
0
0
0
0
0
0
0
0
0
0
0
0
0
0
0
0
0
0
0
0
0
0
0
0
0
0
0
0
0
0
0
0
0
0
0
0
0
0
0
0
0
0
0
0
0
0
0
0
0
0
0
0
0
0
0
0
0
0
0
0
0
0
0
0
0
0
0
0
0
0
0
0
0
0
0
0
0
0
0
0
0
0
0
0
0
0
0
0
0
0
0
0
0
0
0
0
0
0
0
0
0
0
0
0
0
0
0
0
0
0
0
0
0
0
0
0
0
0
0
0
0
0
0
0
0
0
0
0
0
0
0
0
0
0
0
0
0
0
0
0
0
0
0
0
0
0
0
0
0
0
0
0
0
0
0
0
0
0
0
0
0
0
0
0
0
0
0
0
0
0
0
0
0
0
0
0
0
0
0
0
0
0
0
0
0
0
0
0
0
0
0
0
0
0
0
0
0
0
0
0
0
0
0
0
0
0
0
0
0
0
0
0
0
0
0
0
0
0
0
0
0
0
0
0
0
0
0
0
0
0
0
0
0
0
0
0
0
0
0
0
0
0
0
0
0
0
0
0
0
0
0
0
0
0
0
0
0
0
0
0
0
0
0
0
0
0
0
0
0
0
0
0
0
0
0
0
0
0
0
0
0
0
0
0
0
0
0
0
0
0
0
0
0
0
0
0
0
0
0
0
0
0
0
0
0
0
0
0
0
0
0
0
0
0
0
0
0
0
0
0
0
0
0
0
0
0
0
0
0
0
0
0
0
0
0
0
0
0
0
0
0
0
0
0
0
0
0
0
0
0
0
0
0
0
0
0
0
0
0
0
0
0
0
0
0
0
0
0
0
0
0
0
0
0
0
0
0
0
0
0
0
0
0
0
0
0
0
0
0
0
0
0
0
0
0
0
0
0
0
0
0
0
0
0
0
0
0
0
0
0
0
0
0
0
0
0
0
0
0
0
0
0
0
0
0
0
0
0
0
0
0
0
0
0
0
0
0
0
0
0
0
0
0
0
0
0
0
0
0
0
0
0
0
0
0
0
0
0
0
40448
40448
40448
40448
40448
40448
40448
40448
40448
40448
40448
40448
0
0
0
0
0
0
0
0
0
0
0
0
0
0
0
0
0
0
0
0
0
0
0
0
0
0
0
0
0
0
0
0
0
0
0
0
0
0
0
0
0
0
0
0
0
0
0
0
0
0
40448
40448
40448
40448
40448
40448
40448
40448
40448
40448
40448
40448
40448
40448
40448
40448
40448
0
0
0
0
0
0
0
0
0
0
0
0
0
0
0
0
0
0
0
0
0
0
0
0
0
0
0
0
0
0
0
0
0
0
0
0
0
0
0
0
0
0
0
0
0
0
40448
40448
40448
40448
40448
40448
40448
40448
40448
40448
40448
40448
40448
40448
40448
40448
40448
40448
40448
0
0
0
0
0
0
0
0
0
0
0
0
0
0
0
0
0
0
0
0
0
0
0
0
0
0
0
0
0
0
0
0
0
0
0
0
0
0
0
0
0
0
0
0
0
40448
40448
40448
40448
40448
40448
40448
40448
40448
40448
40448
40448
40448
40448
40448
40448
40448
40448
40448
40448
0
0
0
0
0
0
0
0
0
0
0
0
0
0
0
0
0
0
0
0
0
0
0
0
0
0
0
0
0
0
0
0
0
0
0
0
0
0
0
0
0
0
0
0
18433
31745
38657
40448
40448
0
0
0
40448
0
0
40448
40448
40448
40448
40448
40448
40448
40448
40448
40448
0
0
0
0
0
0
0
0
0
0
0
0
0
0
0
0
0
0
0
0
0
0
0
0
0
0
0
0
0
0
0
0
0
0
0
0
0
0
0
0
0
0
40448
25089
39937
40448
40448
40448
0
0
0
0
0
0
0
40448
0
0
0
40448
40448
40448
40448
40448
40448
0
0
0
0
0
0
0
0
0
0
0
0
0
0
0
0
0
0
0
0
0
0
0
0
0
0
0
0
0
0
0
0
0
0
0
0
0
0
0
40448
40448
27905
0
0
40448
40448
40448
0
0
0
0
0
0
0
0
0
0
0
0
0
0
0
0
40448
0
0
0
0
0
0
0
0
0
0
0
0
0
0
0
0
0
0
0
0
0
0
0
0
0
0
0
0
0
0
0
0
0
0
0
0
0
0
40448
40448
0
0
0
0
40448
40448
40448
0
0
0
0
0
0
0
40448
0
0
0
0
0
0
0
0
40448
40448
0
0
0
0
0
0
0
0
0
0
0
0
0
0
0
0
0
0
0
0
0
0
0
0
0
0
0
0
0
0
0
0
0
0
0
0
0
40448
0
0
0
0
0
40448
40448
0
0
0
0
0
0
0
0
0
40448
40448
0
0
0
0
0
0
0
40448
0
0
0
0
0
0
0
0
0
0
0
0
0
0
0
0
0
0
0
0
0
0
0
0
0
0
0
0
0
0
0
0
0
0
0
0
40448
0
0
0
0
0
0
40448
40448
40448
0
0
0
0
0
0
0
0
40448
40448
40448
0
0
0
0
0
0
0
40448
0
0
0
0
0
0
0
0
0
0
0
0
0
0
0
0
0
0
0
0
0
0
0
0
0
0
0
0
0
0
0
0
0
0
40448
40448
0
0
0
0
0
0
40448
40448
40448
40448
0
0
0
0
0
0
0
40448
40448
40448
40448
0
0
0
0
0
0
40448
0
0
0
0
0
0
0
0
0
0
0
0
0
0
0
0
0
0
0
0
0
0
0
0
0
0
0
0
0
0
0
0
0
0
40448
40448
40448
0
0
0
0
40448
40448
40448
40448
40448
0
0
0
0
0
0
0
40448
40448
40448
40448
40448
0
40448
40448
40448
40448
40448
0
0
0
0
0
0
0
0
0
0
0
0
0
0
0
0
0
0
0
0
0
0
0
0
0
0
0
0
0
0
0
0
0
0
40448
40448
40448
40448
0
0
0
23553
40448
40448
0
0
0
0
0
0
0
0
40448
40448
40448
40448
40448
40448
40448
40448
40448
40448
40448
40448
40448
0
0
0
0
0
0
0
0
0
0
0
0
0
0
0
0
0
0
0
0
0
0
0
0
0
0
0
0
0
0
0
0
40448
0
40448
40448
40448
20737
27649
32769
41217
20993
40448
0
0
0
0
0
0
0
0
40448
40448
40448
40448
19713
25857
26881
40448
40448
40448
40448
40448
40448
0
0
0
0
0
0
0
0
0
0
0
0
0
0
0
0
0
0
0
0
0
0
0
0
0
0
0
0
0
0
0
0
40448
0
0
40448
29697
63233
19201
40448
25857
24065
40448
0
0
0
0
0
0
0
0
40448
40448
40448
40448
31745
38401
45057
32769
40448
40448
40448
40448
40448
0
0
0
0
0
0
0
0
0
0
0
0
0
0
0
0
0
0
0
0
0
0
0
0
0
0
0
0
0
0
0
0
40448
0
0
40448
62721
27137
40448
40448
40448
40448
40448
40448
0
0
0
0
0
0
0
0
40448
40448
40448
40448
40448
40448
40448
40448
40448
40448
17409
40448
40448
0
0
0
0
0
0
0
0
0
0
0
0
0
0
0
0
0
0
0
0
0
0
0
0
0
0
0
0
0
0
0
40448
40448
40448
40448
40448
40448
0
0
40448
40448
40448
40448
40448
0
0
40448
40448
40448
0
40448
40448
40448
40448
40448
40448
40448
40448
40448
40448
40448
35073
40448
40448
0
0
0
0
0
0
0
0
0
0
0
0
0
0
0
0
0
0
0
0
0
0
0
0
0
0
0
0
0
0
0
40448
40448
40448
40448
40448
0
0
0
0
40448
40448
40448
40448
0
40448
40448
40448
40448
40448
40448
40448
40448
40448
40448
40448
40448
40448
40448
40448
40448
40448
40448
40448
0
0
0
0
0
0
0
0
0
0
0
0
0
0
0
0
0
0
0
0
0
0
0
0
0
0
0
0
0
0
0
40448
40448
40448
40448
40448
0
0
0
0
40448
40448
40448
40448
40448
40448
33793
25089
40448
40448
40448
40448
40448
40448
40448
40448
40448
40448
40448
40448
40448
40448
40448
40448
0
0
0
0
0
0
0
0
0
0
0
0
0
0
0
0
0
0
0
0
0
0
0
0
0
0
0
0
0
0
0
40448
40448
40448
40448
40448
0
0
0
0
40448
40448
40448
40448
40448
40448
31745
24321
40448
40448
40448
40448
40448
40448
40448
40448
0
0
0
0
40448
40448
40448
40448
0
0
0
0
0
0
0
0
0
0
0
0
0
0
0
0
0
0
0
0
0
0
0
0
0
0
0
0
0
0
0
40448
40448
40448
40448
40448
0
0
0
0
40448
40448
40448
40448
40448
40448
40448
40448
40448
40448
40448
40448
40448
40448
40448
40448
0
0
0
0
40448
40448
40448
40448
0
0
0
0
0
0
0
0
0
0
0
0
0
0
0
0
0
0
0
0
0
0
0
0
0
0
0
0
0
0
40448
40448
40448
40448
40448
40448
0
0
0
0
0
40448
0
0
40448
40448
40448
40448
40448
40448
40448
40448
40448
40448
40448
40448
0
0
0
0
40448
40448
40448
40448
40448
0
0
0
0
0
0
0
0
0
0
0
0
0
0
0
0
0
0
0
0
0
0
0
0
0
0
0
0
0
40448
40448
40448
40448
40448
40448
0
0
0
0
0
0
0
0
40448
40448
40448
40448
40448
40448
40448
40448
40448
40448
40448
40448
0
0
0
0
40448
40448
40448
40448
40448
0
0
0
0
0
0
0
0
0
0
0
0
0
0
0
0
0
0
0
0
0
0
0
0
0
0
0
0
0
40448
40448
40448
0
0
0
0
0
0
0
0
0
0
0
40448
26113
23297
19969
19201
40448
40448
40448
40448
40448
40448
0
0
0
0
0
40448
40448
40448
40448
40448
0
0
0
0
0
0
0
0
0
0
0
0
0
0
0
0
0
0
0
0
0
0
0
0
0
0
0
0
0
40448
40448
40448
0
0
0
0
0
0
0
0
0
0
40448
40448
45569
49665
51201
49153
40448
40448
40448
40448
40448
0
0
0
0
0
0
0
40448
40448
40448
40448
0
0
0
0
0
0
0
0
0
0
0
0
0
0
0
0
0
0
0
0
0
0
0
0
0
0
0
0
0
40448
40448
0
0
0
0
0
0
0
0
0
0
0
40448
40448
0
0
0
40448
40448
40448
40448
40448
40448
0
0
0
0
0
0
0
40448
40448
0
40448
0
0
0
0
0
0
0
0
0
0
0
0
0
0
0
0
0
0
0
0
0
0
0
0
0
0
0
0
0
40448
40448
40448
0
0
0
0
0
0
0
0
0
0
40448
40448
0
0
0
0
40448
40448
40448
40448
40448
0
0
0
0
0
40448
40448
40448
0
0
40448
0
0
0
0
0
0
0
0
0
0
0
0
0
0
0
0
0
0
0
0
0
0
0
0
0
0
0
0
0
0
40448
40448
0
0
0
0
0
0
0
0
0
0
0
0
0
0
0
0
40448
40448
0
0
0
0
0
0
0
0
40448
40448
40448
40448
0
40448
0
0
0
0
0
0
0
0
0
0
0
0
0
0
0
0
0
0
0
0
0
0
0
0
0
0
0
0
0
0
40448
0
0
0
0
0
0
0
0
0
0
0
0
0
0
0
40448
0
0
40448
40448
40448
0
0
0
0
0
0
40448
40448
40448
40448
0
0
0
0
0
0
0
0
0
0
0
0
0
0
0
0
0
0
0
0
0
0
0
0
0
0
0
0
0
0
0
0
40448
40448
0
0
0
0
0
0
0
0
0
0
0
0
0
0
40448
40448
40448
0
0
0
0
0
40448
0
0
0
0
40448
40448
40448
0
0
0
0
0
0
0
0
0
0
0
0
0
0
0
0
0
0
0
0
0
0
0
0
0
0
0
0
0
0
0
0
0
40448
0
0
0
0
0
0
0
0
0
0
0
0
0
0
40448
40448
40448
0
0
0
0
40448
0
0
0
0
40448
40448
40448
0
0
0
0
0
0
0
0
0
0
0
0
0
0
0
0
0
0
0
0
0
0
0
0
0
0
0
0
0
0
0
0
0
0
40448
40448
0
0
0
0
0
0
0
0
0
0
0
0
0
0
0
0
0
0
0
0
0
0
0
0
0
40448
40448
40448
0
40448
0
0
0
0
0
0
0
0
0
0
0
0
0
0
0
0
0
0
0
0
0
0
0
0
0
0
0
0
0
0
0
0
40448
40448
0
0
0
0
0
0
0
0
0
40448
40448
40448
0
0
0
0
0
0
0
40448
0
0
0
0
0
40448
40448
40448
40448
40448
0
0
0
0
0
0
0
0
0
0
0
0
0
0
0
0
0
0
0
0
0
0
0
0
0
0
0
0
0
0
0
0
0
0
0
0
0
0
0
0
0
0
0
40448
0
0
0
0
0
0
0
0
40448
0
0
0
0
0
0
40448
40448
40448
40448
40448
0
0
0
0
0
0
0
0
0
0
0
0
0
0
0
0
0
0
0
0
0
0
0
0
0
0
0
0
0
0
0
0
0
0
0
0
0
0
0
0
0
0
0
0
0
0
0
0
0
0
0
0
40448
40448
40448
40448
0
0
0
40448
0
0
40448
0
0
0
0
0
0
0
0
0
0
0
0
0
0
0
0
0
0
0
0
0
0
0
0
0
0
0
0
0
0
0
0
0
0
0
0
0
0
0
0
0
0
0
0
0
0
0
40448
0
0
0
0
0
0
0
0
0
0
0
40448
40448
0
0
0
0
0
0
0
0
0
0
0
0
0
0
0
0
0
0
0
0
0
0
0
0
0
0
0
0
0
0
0
0
0
0
0
0
0
0
0
0
40448
0
0
0
0
0
0
0
0
0
40448
0
0
0
0
0
0
0
0
40448
0
0
40448
0
0
0
0
0
0
0
0
0
0
0
0
0
0
0
0
0
0
0
0
0
0
0
0
0
0
0
0
0
0
0
0
0
0
0
0
0
0
0
0
0
40448
40448
0
0
0
0
0
0
0
0
0
0
0
0
0
0
0
0
0
0
0
40448
40448
40448
0
0
0
0
0
0
0
0
0
0
0
0
0
0
0
0
0
0
0
0
0
0
0
0
0
0
0
0
0
0
0
0
0
0
0
0
0
0
40448
40448
40448
40448
0
0
0
0
0
0
0
0
0
0
0
0
0
40448
0
0
0
40448
40448
40448
40448
40448
40448
0
0
0
0
0
0
0
0
0
0
0
0
0
0
0
0
0
0
0
0
0
0
0
0
0
0
0
0
0
0
0
0
0
0
0
0
0
40448
40448
40448
40448
40448
40448
0
0
0
0
0
0
0
0
0
0
0
40448
0
0
40448
40448
40448
40448
40448
0
40448
0
0
0
0
0
0
0
0
0
0
0
0
0
0
0
0
0
0
0
0
0
0
0
0
0
0
0
0
0
0
0
0
0
0
0
0
0
0
40448
40448
40448
40448
40448
40448
40448
40448
0
0
0
0
40448
40448
40448
0
0
40448
40448
40448
40448
40448
40448
40448
40448
0
0
0
0
0
0
0
0
0
0
0
0
0
0
0
0
0
0
0
0
0
0
0
0
0
0
0
0
0
0
0
0
0
0
0
0
0
0
0
0
40448
40448
40448
40448
40448
40448
40448
40448
40448
40448
40448
40448
40448
40448
40448
40448
40448
40448
40448
40448
40448
40448
40448
0
0
0
0
0
0
0
0
0
0
0
0
0
0
0
0
0
0
0
0
0
0
0
0
0
0
0
0
0
0
0
0
0
0
0
0
0
0
0
0
0
0
40448
40448
40448
40448
40448
40448
40448
40448
40448
40448
40448
40448
40448
40448
40448
40448
40448
40448
40448
40448
40448
0
0
0
0
0
0
0
0
0
0
0
0
0
0
0
0
0
0
0
0
0
0
0
0
0
0
0
0
0
0
0
0
0
0
0
0
0
0
0
0
0
0
0
0
40448
40448
40448
40448
40448
40448
40448
40448
40448
40448
40448
40448
40448
40448
40448
40448
40448
40448
40448
0
0
0
0
0
0
0
0
0
0
0
0
0
0
0
0
0
0
0
0
0
0
0
0
0
0
0
0
0
0
0
0
0
0
0
0
0
0
0
0
0
0
0
0
0
0
40448
40448
40448
40448
40448
40448
40448
40448
40448
40448
40448
40448
40448
40448
40448
40448
40448
0
0
0
0
0
0
0
0
0
0
0
0
0
0
0
0
0
0
0
0
0
0
0
0
0
0
0
0
0
0
0
0
0
0
0
0
0
0
0
0
0
0
0
0
0
0
0
0
0
40448
40448
40448
40448
40448
40448
40448
40448
40448
40448
40448
40448
40448
40448
0
0
0
0
0
0
0
0
0
0
0
0
0
0
0
0
0
0
0
0
0
0
0
0
0
0
0
0
0
0
0
0
0
0
0
0
0
0
0
0
0
0
0
0
0
0
0
0
0
0
0
0
0
0
0
0
0
40448
40448
40448
40448
40448
0
0
0
0
0
0
0
0
0
0
0
0
0
0
0
0
0
0
0
0
0
0
0
0
0
0
0
0
0
0
0
0
0
0
0
0
0
0
0
0
0
0
0
0
0
0
0
0
0
0
0
0
0
0
0
0
0
0
0
0
0
0
0
0
0
0
0
0
0
0
0
0
0
0
0
0
0
0
0
0
0
0
0
0
0
0
0
0
0
0
0
0
0
0
0
0
0
0
0
0
0
0
0
0
0
0
0
0
0
0
0
0
0
0
0
0
0
0
0
0
0
0
0
0
0
0
0
0
0
0
0
0
0
0
0
0
0
0
0
0
0
0
0
0
0
0
0
0
0
0
0
0
0
0
0
0
0
0
0
0
0
0
0
0
0
0
0
0
0
0
0
0
0
0
0
0
0
0
0
0
0
0
0
0
0
0
0
0
0
0
0
0
0
0
0
0
0
0
0
0
0
0
0
0
0
0
0
0
0
0
0
0
0
0
0
0
0
0
0
0
0
0
0
0
0
0
0
0
0
0
0
0
0
0
0
0
0
0
0
0
0
0
0
0
0
0
0
0
0
0
0
0
0
0
0
0
0
0
0
0
0
0
0
0
0
0
0
0
0
0
0
0
0
0
0
0
0
0
0
0
0
0
0
