P2
64  64
64769
0
0
0
0
0
0
0
0
0
0
0
0
0
0
0
0
0
0
0
0
0
0
0
0
0
0
0
0
0
0
0
0
0
0
0
0
0
0
0
0
0
0
0
0
0
0
0
0
0
0
0
0
0
0
0
0
0
0
0
0
0
0
0
0
0
0
0
0
0
0
0
0
0
0
0
0
0
0
0
0
0
0
0
0
0
0
0
0
0
0
0
0
0
0
0
0
0
0
0
0
0
0
0
0
0
0
0
0
0
0
0
0
0
0
0
0
0
0
0
0
0
0
0
0
0
0
0
0
0
0
0
0
0
0
0
0
0
0
0
0
0
0
0
0
0
0
0
0
0
0
0
0
0
0
0
0
0
0
0
0
0
0
0
0
0
0
0
0
0
0
0
0
0
0
0
0
0
0
0
0
0
0
0
0
0
0
0
0
0
0
0
0
0
0
0
0
0
0
0
0
0
0
0
0
0
0
0
0
0
0
0
0
0
0
0
0
0
0
0
0
0
0
0
0
0
0
0
0
0
0
0
0
0
0
0
0
0
0
0
0
0
0
0
0
0
0
0
0
0
0
0
0
0
0
0
0
0
0
0
0
0
0
0
0
0
0
0
0
0
0
0
0
0
0
0
0
0
0
0
0
0
0
0
0
0
0
0
0
0
0
0
0
0
0
0
0
0
0
0
0
0
0
0
0
0
0
0
0
0
0
0
0
0
0
0
0
0
0
0
0
0
0
0
0
0
0
0
0
0
0
0
0
0
0
0
0
0
0
0
0
0
0
0
0
0
0
0
0
0
0
0
0
0
0
0
0
0
0
0
0
0
0
0
0
0
0
0
0
0
0
0
0
0
0
0
0
0
0
0
0
0
0
0
0
0
0
0
0
0
0
0
0
0
0
0
0
0
0
0
0
0
0
0
0
0
0
0
0
0
0
0
0
0
0
0
0
0
0
0
0
0
0
0
0
0
0
0
0
0
0
0
0
0
0
0
0
0
0
0
0
0
0
0
0
0
0
0
0
0
0
0
0
0
0
0
0
0
0
0
0
0
0
0
0
0
0
0
0
0
0
0
0
0
0
0
0
0
0
0
0
0
0
0
0
0
0
0
0
0
0
0
0
0
0
0
0
0
0
0
0
0
0
0
0
0
0
0
0
0
0
0
0
0
0
0
0
0
0
0
0
0
0
0
0
0
0
0
0
0
0
0
0
0
0
0
0
0
0
0
0
0
0
0
0
0
0
0
0
0
0
0
0
0
0
0
0
0
0
0
0
0
0
0
0
0
0
0
0
0
0
0
0
0
0
0
0
0
0
0
0
0
0
0
0
0
0
0
0
0
0
0
0
0
0
0
0
0
0
0
0
0
0
0
0
0
0
0
0
0
0
0
0
0
0
0
0
0
0
0
0
0
0
0
0
0
0
0
0
0
0
0
0
0
0
0
0
0
0
0
0
0
0
0
0
0
0
0
0
0
0
0
0
0
0
0
0
0
0
0
0
0
0
0
0
0
0
0
0
0
0
0
0
0
0
0
0
0
0
0
0
0
0
0
0
0
0
0
0
0
0
0
0
0
0
0
0
0
0
0
0
0
0
0
0
0
0
0
0
0
0
0
0
0
0
0
0
0
0
0
0
0
0
0
0
0
0
0
0
0
0
0
0
0
0
0
0
0
0
0
0
0
0
0
0
0
0
0
0
0
0
0
0
0
0
0
0
0
0
0
0
0
0
0
0
0
0
0
0
0
0
0
0
0
0
0
0
0
0
0
0
0
0
0
0
0
0
0
0
0
0
0
0
0
0
0
0
0
0
0
0
0
0
0
0
0
0
0
0
0
0
0
0
0
0
0
0
0
0
0
0
0
0
0
0
0
0
0
0
0
0
0
0
0
0
0
0
0
0
0
0
0
0
0
0
0
0
0
0
0
0
0
0
0
0
0
0
0
0
40448
40448
40448
40448
40448
0
0
40448
40448
40448
40448
0
0
0
0
0
0
0
0
0
0
0
0
0
0
0
0
0
0
0
0
0
0
0
0
0
0
0
0
0
0
0
0
0
0
0
0
0
0
0
0
0
0
0
0
0
0
0
0
0
0
0
0
40448
40448
40448
40448
40448
40448
0
40448
40448
40448
40448
40448
40448
0
0
0
0
0
0
0
0
0
0
0
0
0
0
0
0
0
0
0
0
0
0
0
0
0
0
0
0
0
0
0
0
0
0
0
0
0
0
0
0
0
0
0
0
0
0
0
0
0
40448
40448
40448
40448
40448
40448
40448
40448
0
0
40448
40448
40448
40448
40448
40448
40448
0
0
0
0
0
0
0
0
0
0
0
0
0
0
0
0
0
0
0
0
0
0
0
0
0
0
0
0
0
0
0
0
0
0
0
0
0
0
0
0
0
0
0
0
0
0
40448
40448
40448
40448
40448
40448
40448
40448
0
0
0
0
40448
40448
40448
40448
40448
40448
40448
0
0
0
0
0
0
0
0
0
0
0
0
0
0
0
0
0
0
0
0
0
0
0
0
0
0
0
0
0
0
0
0
0
0
0
0
0
0
0
0
0
0
0
0
0
40448
40448
40448
40448
40448
40448
40448
0
0
0
0
0
0
0
40448
40448
40448
40448
40448
40448
0
0
0
0
0
0
0
0
0
0
0
0
0
0
0
0
0
0
0
0
0
0
0
0
0
0
0
0
0
0
0
0
0
0
0
0
0
0
0
0
0
0
0
40448
40448
40448
40448
40448
40448
40448
0
0
0
0
0
40448
40448
40448
40448
40448
40448
40448
40448
40448
0
0
0
0
0
0
0
0
0
0
0
0
0
0
0
0
0
0
0
0
0
0
0
0
0
0
0
0
0
0
0
0
0
0
0
0
0
0
0
0
0
0
40448
40448
40448
40448
40448
40448
40448
40448
40448
40448
40448
40448
40448
40448
40448
40448
40448
40448
40448
40448
40448
40448
40448
0
0
0
0
0
0
0
0
0
0
0
0
0
0
0
0
0
0
0
0
0
0
0
0
0
0
0
0
0
0
0
0
0
0
0
0
0
0
0
0
40448
40448
40448
40448
40448
40448
22785
40448
40448
40448
40448
40448
40448
40448
40448
40448
40448
40448
40448
40448
40448
40448
40448
40448
40448
0
0
0
0
0
0
0
0
0
0
0
0
0
0
0
0
0
0
0
0
0
0
0
0
0
0
0
0
0
0
0
0
0
0
0
0
0
0
40448
40448
40448
40448
21249
17153
21505
26625
40448
40448
40448
40448
40448
40448
40448
40448
40448
40448
40448
40448
40448
40448
40448
40448
40448
40448
0
0
0
0
0
0
0
0
0
0
0
0
0
0
0
0
0
0
0
0
0
0
0
0
0
0
0
0
0
0
0
0
0
0
0
0
0
0
40448
40448
40448
35329
51969
36097
26881
20225
40448
40448
40448
40448
40448
40448
40448
40448
40448
40448
40448
40448
40448
40448
40448
40448
40448
40448
40448
0
0
0
0
0
0
0
0
0
0
0
0
0
0
0
0
0
0
0
0
0
0
0
0
0
0
0
0
0
0
0
0
0
0
0
0
40448
40448
40448
40705
9730
17154
54529
27649
40448
0
0
40448
40448
40448
40448
40448
40448
40448
40448
40448
40448
40448
40448
40448
40448
40448
40448
40448
0
0
0
0
0
0
0
0
0
0
0
0
0
0
0
0
0
0
0
0
0
0
0
0
0
0
0
0
0
0
0
0
0
0
0
0
40448
40448
40448
19458
16642
59137
45825
26113
40448
0
0
40448
40448
40448
40448
0
40448
40448
40448
40448
40448
40448
40448
40448
43777
29185
40448
40448
40448
0
0
0
0
0
0
0
0
0
0
0
0
0
0
0
0
0
0
0
0
0
0
0
0
0
0
0
0
0
0
0
0
0
0
40448
40448
40448
28929
9218
33793
16385
40448
40448
40448
40448
40448
40448
40448
40448
40448
40448
40448
40448
40448
40448
40448
40448
40448
40448
19969
17921
40448
0
40448
0
0
0
0
0
0
0
0
0
0
0
0
0
0
0
0
0
0
0
0
0
0
0
0
0
0
0
0
0
0
0
0
0
0
40448
40448
40448
57345
29697
40448
40448
40448
40448
40448
40448
40448
40448
0
40448
40448
40448
40448
40448
40448
40448
40448
40448
40448
40448
40448
40448
40448
40448
40448
40448
0
0
0
0
0
0
0
0
0
0
0
0
0
0
0
0
0
0
0
0
0
0
0
0
0
0
0
0
0
0
0
0
40448
40448
40448
40448
20481
17409
40448
40448
40448
40448
40448
40448
40448
0
0
0
0
0
0
0
40448
40448
40448
40448
40448
40448
40448
40448
40448
40448
40448
40448
0
0
0
0
0
0
0
0
0
0
0
0
0
0
0
0
0
0
0
0
0
0
0
0
0
0
0
0
0
0
0
0
40448
40448
40448
40448
40448
40448
21505
40448
40448
40448
40448
40448
40448
40448
40448
40448
40448
40448
0
0
0
40448
40448
40448
40448
40448
40448
40448
40448
40448
40448
40448
0
0
0
0
0
0
0
0
0
0
0
0
0
0
0
0
0
0
0
0
0
0
0
0
0
0
0
0
0
0
0
0
0
0
40448
40448
40448
40448
21249
40448
40448
40448
40448
40448
40448
40448
40448
40448
40448
40448
40448
0
40448
40448
40448
40448
40448
40448
40448
40448
40448
40448
40448
40448
40448
0
0
0
0
0
0
0
0
0
0
0
0
0
0
0
0
0
0
0
0
0
0
0
0
0
0
0
0
0
0
0
40448
40448
40448
40448
40448
40448
40448
40448
40448
40448
40448
40448
40448
40448
40448
40448
40448
40448
40448
0
40448
40448
40448
40448
40448
40448
40448
40448
40448
40448
40448
40448
40448
0
0
0
0
0
0
0
0
0
0
0
0
0
0
0
0
0
0
0
0
0
0
0
0
0
0
0
0
0
0
0
40448
40448
40448
40448
40448
40448
40448
40448
40448
40448
40448
40448
40448
40448
40448
40448
40448
40448
40448
40448
40448
40448
40448
40448
40448
40448
40448
40448
40448
40448
40448
40448
40448
0
0
0
0
0
0
0
0
0
0
0
0
0
0
0
0
0
0
0
0
0
0
0
0
0
0
0
0
0
0
0
40448
40448
40448
40448
40448
40448
40448
40448
40448
40448
40448
40448
40448
40448
40448
40448
40448
40448
40448
40448
40448
40448
40448
40448
40448
40448
40448
40448
40448
0
40448
40448
40448
0
0
0
0
0
0
0
0
0
0
0
0
0
0
0
0
0
0
0
0
0
0
0
0
0
0
0
0
0
0
40448
40448
40448
40448
40448
40448
40448
40448
0
0
40448
40448
40448
40448
40448
40448
40448
40448
40448
40448
40448
40448
40448
40448
40448
40448
40448
0
0
0
0
40448
40448
40448
0
0
0
0
0
0
0
0
0
0
0
0
0
0
0
0
0
0
0
0
0
0
0
0
0
0
0
0
0
0
40448
40448
40448
40448
40448
40448
40448
40448
0
0
0
0
40448
40448
40448
40448
40448
40448
40448
40448
40448
40448
40448
40448
40448
40448
0
0
40448
40448
40448
40448
40448
40448
0
0
0
0
0
0
0
0
0
0
0
0
0
0
0
0
0
0
0
0
0
0
0
0
0
0
0
0
0
0
0
40448
40448
40448
0
0
0
0
0
0
0
0
0
40448
40448
40448
40448
40448
40448
40448
40448
40448
40448
40448
40448
0
0
40448
40448
40448
40448
0
0
40448
0
0
0
0
0
0
0
0
0
0
0
0
0
0
0
0
0
0
0
0
0
0
0
0
0
0
0
0
0
0
40448
0
40448
0
0
0
0
0
40448
0
0
0
0
0
0
40448
40448
40448
40448
40448
40448
40448
40448
40448
40448
0
0
0
0
40448
40448
0
40448
40448
0
0
0
0
0
0
0
0
0
0
0
0
0
0
0
0
0
0
0
0
0
0
0
0
0
0
0
0
0
0
40448
40448
40448
0
0
0
0
0
0
0
0
0
0
0
0
0
40448
40448
0
0
0
0
40448
40448
40448
0
0
0
0
0
40448
0
40448
40448
0
0
0
0
0
0
0
0
0
0
0
0
0
0
0
0
0
0
0
0
0
0
0
0
0
0
0
0
0
0
40448
40448
0
0
0
0
0
0
0
0
0
0
0
0
0
0
0
0
0
0
0
0
40448
40448
40448
0
0
0
0
0
40448
0
40448
40448
40448
0
0
0
0
0
0
0
0
0
0
0
0
0
0
0
0
0
0
0
0
0
0
0
0
0
0
0
0
0
40448
40448
0
0
0
0
0
0
0
0
0
0
0
0
0
0
0
0
0
0
0
0
40448
40448
40448
0
0
0
0
40448
40448
40448
40448
40448
40448
0
0
0
0
0
0
0
0
0
0
0
0
0
0
0
0
0
0
0
0
0
0
0
0
0
0
0
0
0
40448
40448
0
0
0
0
0
0
0
0
0
0
0
0
0
0
0
0
0
0
0
0
40448
40448
40448
0
0
0
40448
40448
40448
40448
40448
40448
40448
0
0
0
0
0
0
0
0
0
0
0
0
0
0
0
0
0
0
0
0
0
0
0
0
0
0
0
0
0
40448
40448
40448
0
0
0
0
0
0
0
0
0
0
0
0
0
0
0
0
0
0
0
40448
40448
40448
0
0
0
0
40448
40448
40448
40448
40448
40448
0
0
0
0
0
0
0
0
0
0
0
0
0
0
0
0
0
0
0
0
0
0
0
0
0
0
0
0
0
40448
40448
40448
40448
0
0
0
0
0
0
0
0
0
0
0
0
0
40448
0
0
0
0
40448
40448
40448
40448
0
0
40448
40448
40448
40448
40448
40448
0
0
0
0
0
0
0
0
0
0
0
0
0
0
0
0
0
0
0
0
0
0
0
0
0
0
0
0
0
0
40448
40448
40448
40448
0
0
0
0
0
0
0
0
0
0
0
0
0
0
0
0
0
0
40448
40448
40448
40448
40448
40448
40448
40448
40448
40448
40448
40448
0
0
0
0
0
0
0
0
0
0
0
0
0
0
0
0
0
0
0
0
0
0
0
0
0
0
0
0
0
0
0
40448
40448
40448
0
0
0
0
0
0
0
0
0
0
0
0
0
0
0
0
0
0
40448
40448
40448
40448
40448
40448
0
40448
40448
40448
40448
40448
0
0
0
0
0
0
0
0
0
0
0
0
0
0
0
0
0
0
0
0
0
0
0
0
0
0
0
0
0
0
0
0
0
40448
40448
0
0
0
0
0
0
0
0
0
0
0
0
0
0
0
0
0
0
40448
0
0
0
0
0
40448
0
0
40448
40448
0
0
0
0
0
0
0
0
0
0
0
0
0
0
0
0
0
0
0
0
0
0
0
0
0
0
0
0
0
0
0
0
0
40448
0
40448
40448
0
0
0
0
0
0
0
0
0
0
0
0
0
0
0
0
0
0
0
0
0
0
0
0
0
40448
0
0
0
0
0
0
0
0
0
0
0
0
0
0
0
0
0
0
0
0
0
0
0
0
0
0
0
0
0
0
0
0
0
40448
40448
40448
40448
0
0
0
0
0
0
0
0
0
0
0
0
0
0
0
0
0
0
0
0
0
0
0
0
0
40448
40448
0
0
0
0
0
0
0
0
0
0
0
0
0
0
0
0
0
0
0
0
0
0
0
0
0
0
0
0
0
0
0
0
0
40448
40448
40448
40448
40448
0
0
0
0
0
0
0
0
0
0
0
0
0
0
0
0
0
0
0
0
0
0
0
0
0
40448
0
0
0
0
0
0
0
0
0
0
0
0
0
0
0
0
0
0
0
0
0
0
0
0
0
0
0
0
0
0
0
0
0
0
40448
40448
40448
40448
40448
40448
40448
0
0
0
0
0
0
0
0
0
0
0
0
0
0
0
0
40448
40448
0
0
0
0
0
0
0
0
0
0
0
0
0
0
0
0
0
0
0
0
0
0
0
0
0
0
0
0
0
0
0
0
0
0
0
0
0
0
0
40448
40448
40448
40448
40448
40448
0
40448
0
0
0
0
0
0
0
0
0
0
0
0
0
0
40448
40448
40448
40448
40448
40448
0
0
0
0
0
0
0
0
0
0
0
0
0
0
0
0
0
0
0
0
0
0
0
0
0
0
0
0
0
0
0
0
0
0
0
0
0
40448
40448
40448
40448
40448
40448
40448
40448
40448
0
0
0
0
0
0
0
0
0
0
0
0
40448
40448
40448
40448
40448
40448
0
0
0
0
0
0
0
0
0
0
0
0
0
0
0
0
0
0
0
0
0
0
0
0
0
0
0
0
0
0
0
0
0
0
0
0
0
0
40448
40448
40448
40448
40448
40448
0
40448
40448
40448
0
0
0
0
0
0
0
0
0
40448
40448
40448
40448
40448
40448
0
0
0
0
0
0
0
0
0
0
0
0
0
0
0
0
0
0
0
0
0
0
0
0
0
0
0
0
0
0
0
0
0
0
0
0
0
0
0
0
40448
40448
40448
40448
40448
40448
40448
40448
40448
40448
40448
40448
40448
0
0
40448
40448
40448
40448
40448
40448
40448
40448
0
0
0
0
0
0
0
0
0
0
0
0
0
0
0
0
0
0
0
0
0
0
0
0
0
0
0
0
0
0
0
0
0
0
0
0
0
0
0
0
0
0
40448
40448
40448
40448
40448
40448
40448
40448
40448
40448
40448
40448
40448
40448
40448
40448
40448
40448
40448
40448
40448
0
0
0
0
0
0
0
0
0
0
0
0
0
0
0
0
0
0
0
0
0
0
0
0
0
0
0
0
0
0
0
0
0
0
0
0
0
0
0
0
0
0
0
0
40448
40448
40448
40448
40448
40448
40448
40448
40448
40448
40448
40448
40448
40448
40448
40448
40448
40448
0
0
0
0
0
0
0
0
0
0
0
0
0
0
0
0
0
0
0
0
0
0
0
0
0
0
0
0
0
0
0
0
0
0
0
0
0
0
0
0
0
0
0
0
0
0
0
0
40448
40448
40448
40448
40448
40448
40448
40448
40448
40448
40448
40448
40448
0
0
0
0
0
0
0
0
0
0
0
0
0
0
0
0
0
0
0
0
0
0
0
0
0
0
0
0
0
0
0
0
0
0
0
0
0
0
0
0
0
0
0
0
0
0
0
0
0
0
0
0
0
40448
40448
40448
40448
40448
40448
40448
40448
40448
40448
0
0
0
0
0
0
0
0
0
0
0
0
0
0
0
0
0
0
0
0
0
0
0
0
0
0
0
0
0
0
0
0
0
0
0
0
0
0
0
0
0
0
0
0
0
0
0
0
0
0
0
0
0
0
0
0
0
0
0
0
0
0
0
0
0
0
0
0
0
0
0
0
0
0
0
0
0
0
0
0
0
0
0
0
0
0
0
0
0
0
0
0
0
0
0
0
0
0
0
0
0
0
0
0
0
0
0
0
0
0
0
0
0
0
0
0
0
0
0
0
0
0
0
0
0
0
0
0
0
0
0
0
0
0
0
0
0
0
0
0
0
0
0
0
0
0
0
0
0
0
0
0
0
0
0
0
0
0
0
0
0
0
0
0
0
0
0
0
0
0
0
0
0
0
0
0
0
0
0
0
0
0
0
0
0
0
0
0
0
0
0
0
0
0
0
0
0
0
0
0
0
0
0
0
0
0
0
0
0
0
0
0
0
0
0
0
0
0
0
0
0
0
0
0
0
0
0
0
0
0
0
0
0
0
0
0
0
0
0
0
0
0
0
0
0
0
0
0
0
0
0
0
0
0
0
0
0
0
0
0
0
0
0
0
0
0
0
0
0
0
0
0
0
0
0
0
0
0
0
0
0
0
0
0
0
0
0
0
0
0
0
0
0
0
0
0
0
0
0
0
0
0
0
0
0
0
0
0
0
0
0
0
0
0
0
0
0
0
0
0
0
0
0
0
0
0
0
0
0
0
0
0
0
0
0
0
0
0
0
0
0
0
0
0
0
0
0
0
0
0
0
0
0
0
0
0
0
0
0
0
0
0
0
0
0
0
0
0
0
0
0
0
0
0
0
0
0
0
0
0
0
0
0
0
0
0
0
0
0
0
0
0
0
0
0
0
0
0
0
0
0
0
0
0
0
0
0
0
0
0
0
0
