P2
64  64
64769
0
0
0
0
0
0
0
0
0
0
0
0
0
0
0
0
0
0
0
0
0
0
0
0
0
0
0
0
0
0
0
0
0
0
0
0
0
0
0
0
0
0
0
0
0
0
0
0
0
0
0
0
0
0
0
0
0
0
0
0
0
0
0
0
0
0
0
0
0
0
0
0
0
0
0
0
0
0
0
0
0
0
0
0
0
0
0
0
0
0
0
0
0
0
0
0
0
0
0
0
0
0
0
0
0
0
0
0
0
0
0
0
0
0
0
0
0
0
0
0
0
0
0
0
0
0
0
0
0
0
0
0
0
0
0
0
0
0
0
0
0
0
0
0
0
0
0
0
0
0
0
0
0
0
0
0
0
0
0
0
0
0
0
0
0
0
0
0
0
0
0
0
0
0
0
0
0
0
0
0
0
0
0
0
0
0
0
0
0
0
0
0
0
0
0
0
0
0
0
0
0
0
0
0
0
0
0
0
0
0
0
0
0
0
0
0
0
0
0
0
0
0
0
0
0
0
0
0
0
0
0
0
0
0
0
0
0
0
0
0
0
0
0
0
0
0
0
0
0
0
0
0
0
0
0
0
0
0
0
0
0
0
0
0
0
0
0
0
0
0
0
0
0
0
0
0
0
0
0
0
0
0
0
0
0
0
0
0
0
0
0
0
0
0
0
0
0
0
0
0
0
0
0
0
0
0
0
0
0
0
0
0
0
0
0
0
0
0
0
0
0
0
0
0
0
0
0
0
0
0
0
0
0
0
0
0
0
0
0
0
0
0
0
0
0
0
0
0
0
0
0
0
0
0
0
0
0
0
0
0
0
0
0
0
0
0
0
0
0
0
0
0
0
0
0
0
0
0
0
0
0
0
0
0
0
0
0
0
0
0
0
0
0
0
0
0
0
0
0
0
0
0
0
0
0
0
0
0
0
0
0
0
0
0
0
0
0
0
0
0
0
0
0
0
0
0
0
0
0
0
0
0
0
0
0
0
0
0
0
0
0
0
0
0
0
0
0
0
0
0
0
0
0
0
0
0
0
0
0
0
0
0
0
0
0
0
0
0
0
0
0
0
0
0
0
0
0
0
0
0
0
0
0
0
0
0
0
0
0
0
0
0
0
0
0
0
0
0
0
0
0
0
0
0
0
0
0
0
0
0
0
0
0
0
0
0
0
0
0
0
0
0
0
0
0
0
0
0
0
0
0
0
0
0
0
0
0
0
0
0
0
0
0
0
0
0
0
0
0
0
0
0
0
0
0
0
0
0
0
0
0
0
0
0
0
0
0
0
0
0
0
0
0
0
0
0
0
0
0
0
0
0
0
0
0
0
0
0
0
0
0
0
0
0
0
0
0
0
0
0
0
0
0
0
0
0
0
0
0
0
0
0
0
0
0
0
0
0
0
0
0
0
0
0
0
0
0
0
0
0
0
0
0
0
0
0
0
0
0
0
0
0
0
0
0
0
0
0
0
0
0
0
0
0
0
0
0
0
0
0
0
0
0
0
0
0
0
0
0
0
0
0
0
0
0
0
0
0
0
0
0
0
0
0
0
0
0
0
0
0
0
0
0
0
0
0
0
0
0
0
0
0
0
0
0
0
0
0
0
0
0
0
0
0
0
0
0
0
0
0
0
0
0
0
0
0
0
0
0
0
0
0
0
0
0
0
0
0
0
0
0
0
0
0
0
0
0
0
0
0
0
0
0
0
0
0
0
0
0
0
0
0
0
0
0
0
0
0
0
0
0
0
0
0
0
0
0
0
0
0
0
0
0
0
0
0
0
0
0
0
0
0
0
0
0
0
40448
40448
0
0
0
0
0
0
0
0
0
0
0
0
0
0
0
0
0
0
0
0
0
0
0
0
0
0
0
0
0
0
0
0
0
0
0
0
0
0
0
0
0
0
0
0
0
0
0
0
0
0
0
0
0
0
0
0
0
0
0
40448
0
40448
40448
40448
40448
40448
40448
40448
40448
40448
40448
40448
0
0
0
0
0
0
0
0
0
0
0
0
0
0
0
0
0
0
0
0
0
0
0
0
0
0
0
0
0
0
0
0
0
0
0
0
0
0
0
0
0
0
0
0
0
0
0
0
0
40448
40448
40448
40448
40448
40448
40448
40448
40448
40448
40448
40448
40448
40448
40448
40448
40448
0
0
0
0
0
0
0
0
0
0
0
0
0
0
0
0
0
0
0
0
0
0
0
0
0
0
0
0
0
0
0
0
0
0
0
0
0
0
0
0
0
0
0
0
0
0
40448
40448
40448
40448
40448
40448
40448
40448
40448
40448
40448
40448
40448
40448
40448
40448
40448
40448
40448
0
0
0
0
0
0
0
0
0
0
0
0
0
0
0
0
0
0
0
0
0
0
0
0
0
0
0
0
0
0
0
0
0
0
0
0
0
0
0
0
0
0
0
0
40448
40448
40448
40448
40448
40448
40448
40448
40448
0
0
0
0
0
0
40448
40448
40448
40448
40448
40448
0
0
0
0
0
0
0
0
0
0
0
0
0
0
0
0
0
0
0
0
0
0
0
0
0
0
0
0
0
0
0
0
0
0
0
0
0
0
0
0
0
0
0
40448
40448
40448
40448
40448
40448
40448
0
0
0
0
0
0
0
0
0
40448
40448
40448
40448
40448
40448
0
0
0
0
0
0
0
0
0
0
0
0
0
0
0
0
0
0
0
0
0
0
0
0
0
0
0
0
0
0
0
0
0
0
0
0
0
0
0
0
0
40448
40448
40448
32001
46593
40448
40448
40448
0
0
0
0
0
0
0
0
0
40448
40448
40448
40448
40448
40448
0
0
0
0
0
0
0
0
0
0
0
0
0
0
0
0
0
0
0
0
0
0
0
0
0
0
0
0
0
0
0
0
0
0
0
0
0
0
0
0
40448
40448
40448
25089
61953
32513
40448
40448
40448
40448
40448
0
0
0
0
0
0
0
40448
40448
40448
40448
40448
40448
40448
0
0
0
0
0
0
0
0
0
0
0
0
0
0
0
0
0
0
0
0
0
0
0
0
0
0
0
0
0
0
0
0
0
0
0
0
0
0
40448
40448
40448
0
0
45057
19713
40448
40448
40448
40448
40448
40448
0
0
40448
40448
40448
0
40448
40448
40448
40448
40448
40448
40448
40448
0
0
0
0
0
0
0
0
0
0
0
0
0
0
0
0
0
0
0
0
0
0
0
0
0
0
0
0
0
0
0
0
0
0
0
0
0
40448
40448
0
0
48641
24321
40448
40448
40448
0
40448
40448
40448
0
40448
40448
40448
40448
0
40448
40448
40448
40448
0
40448
40448
40448
0
0
0
0
0
0
0
0
0
0
0
0
0
0
0
0
0
0
0
0
0
0
0
0
0
0
0
0
0
0
0
0
0
0
0
0
40448
40448
0
0
0
0
40448
40448
40448
40448
40448
40448
40448
40448
40448
40448
40448
40448
40448
40448
40448
40448
40448
40448
40448
40448
40448
40448
40448
0
0
0
0
0
0
0
0
0
0
0
0
0
0
0
0
0
0
0
0
0
0
0
0
0
0
0
0
0
0
0
0
0
0
0
40448
40448
0
0
0
0
0
40448
40448
40448
40448
40448
40448
40448
40448
40448
40448
40448
40448
40448
40448
40448
40448
40448
40448
40448
0
40448
40448
0
0
0
0
0
0
0
0
0
0
0
0
0
0
0
0
0
0
0
0
0
0
0
0
0
0
0
0
0
0
0
0
0
0
40448
40448
40448
0
0
0
0
40448
40448
40448
40448
40448
40448
40448
40448
0
0
40448
40448
40448
40448
40448
40448
40448
40448
40448
0
0
0
40448
0
0
0
0
0
0
0
0
0
0
0
0
0
0
0
0
0
0
0
0
0
0
0
0
0
0
0
0
0
0
0
0
0
0
40448
40448
40448
0
0
0
0
40448
40448
40448
40448
40448
40448
0
0
0
0
0
40448
40448
40448
0
40448
40448
40448
40448
40448
0
0
40448
40448
0
0
0
0
0
0
0
0
0
0
0
0
0
0
0
0
0
0
0
0
0
0
0
0
0
0
0
0
0
0
0
0
40448
40448
40448
40448
40448
0
0
0
40448
40448
40448
40448
40448
0
0
0
0
0
0
40448
40448
40448
40448
40448
40448
40448
40448
40448
0
0
40448
40448
0
0
0
0
0
0
0
0
0
0
0
0
0
0
0
0
0
0
0
0
0
0
0
0
0
0
0
0
0
0
0
0
0
40448
0
40448
18945
0
0
0
40448
40448
40448
40448
40448
40448
40448
40448
0
0
0
40448
40448
40448
40448
40448
40448
40448
40448
40448
40448
40448
40448
40448
0
0
0
0
0
0
0
0
0
0
0
0
0
0
0
0
0
0
0
0
0
0
0
0
0
0
0
0
0
0
0
0
0
40448
0
40448
40448
40448
0
40448
40448
40448
40448
40448
40448
40448
40448
40448
40448
40448
0
0
40448
40448
40448
40448
40448
40448
40448
40448
40448
40448
40448
40448
40448
0
0
0
0
0
0
0
0
0
0
0
0
0
0
0
0
0
0
0
0
0
0
0
0
0
0
0
0
0
0
0
40448
40448
40448
40448
40448
40448
40448
40448
40448
40448
40448
40448
40448
40448
40448
40448
40448
40448
0
0
0
40448
40448
40448
40448
40448
40448
40448
40448
40448
40448
40448
40448
0
0
0
0
0
0
0
0
0
0
0
0
0
0
0
0
0
0
0
0
0
0
0
0
0
0
0
0
0
0
0
40448
40448
40448
40448
40448
40448
40448
40448
40448
40448
40448
40448
40448
40448
40448
40448
40448
40448
40448
0
40448
40448
40448
0
40448
40448
40448
40448
40448
40448
40448
40448
40448
0
0
0
0
0
0
0
0
0
0
0
0
0
0
0
0
0
0
0
0
0
0
0
0
0
0
0
0
0
0
0
40448
40448
40448
40448
40448
40448
40448
40448
40448
40448
40448
40448
40448
40448
40448
40448
40448
40448
40448
40448
40448
40448
40448
0
40448
40448
40448
40448
40448
40448
40448
40448
40448
0
0
0
0
0
0
0
0
0
0
0
0
0
0
0
0
0
0
0
0
0
0
0
0
0
0
0
0
0
0
0
40448
40448
40448
40448
40448
40448
40448
0
40448
40448
40448
40448
40448
40448
40448
40448
40448
40448
40448
40448
40448
40448
0
0
40448
40448
0
0
40448
40448
40448
40448
40448
0
0
0
0
0
0
0
0
0
0
0
0
0
0
0
0
0
0
0
0
0
0
0
0
0
0
0
0
0
0
40448
40448
40448
40448
40448
40448
40448
40448
0
40448
40448
40448
40448
40448
40448
17153
26625
40448
40448
40448
40448
40448
40448
0
0
0
40448
0
0
0
40448
40448
40448
40448
0
0
0
0
0
0
0
0
0
0
0
0
0
0
0
0
0
0
0
0
0
0
0
0
0
0
0
0
0
0
40448
40448
40448
40448
0
0
40448
40448
0
0
0
40448
0
40448
40448
40448
43009
34305
28161
17921
40448
40448
40448
0
0
40448
0
0
0
40448
40448
40448
40448
40448
40448
0
0
0
0
0
0
0
0
0
0
0
0
0
0
0
0
0
0
0
0
0
0
0
0
0
0
0
0
0
40448
40448
40448
0
0
0
0
0
0
0
0
0
0
0
40448
40448
46081
52993
47873
18689
40448
40448
40448
40448
40448
40448
0
0
0
0
40448
0
40448
40448
40448
0
0
0
0
0
0
0
0
0
0
0
0
0
0
0
0
0
0
0
0
0
0
0
0
0
0
0
0
0
40448
40448
40448
0
0
0
0
0
0
0
0
0
0
40448
40448
40448
47361
46593
39169
40448
40448
40448
40448
40448
40448
0
0
0
0
0
40448
0
40448
40448
40448
0
0
0
0
0
0
0
0
0
0
0
0
0
0
0
0
0
0
0
0
0
0
0
0
0
0
0
0
0
40448
40448
40448
0
0
0
0
0
0
0
0
0
0
40448
40448
40448
40448
40448
40448
40448
40448
40448
0
40448
0
0
0
0
0
0
40448
0
40448
40448
40448
0
0
0
0
0
0
0
0
0
0
0
0
0
0
0
0
0
0
0
0
0
0
0
0
0
0
0
0
0
40448
40448
0
0
0
0
0
0
0
0
0
0
0
40448
0
0
0
0
40448
40448
40448
40448
40448
40448
0
0
0
0
0
0
40448
40448
40448
40448
40448
0
0
0
0
0
0
0
0
0
0
0
0
0
0
0
0
0
0
0
0
0
0
0
0
0
0
0
0
0
40448
40448
0
0
0
0
0
0
0
0
0
0
0
0
0
0
0
0
0
40448
40448
40448
40448
40448
0
0
0
0
0
0
40448
40448
40448
40448
40448
0
0
0
0
0
0
0
0
0
0
0
0
0
0
0
0
0
0
0
0
0
0
0
0
0
0
0
0
0
40448
40448
0
0
0
0
0
0
0
0
0
0
0
0
0
0
0
0
0
0
40448
40448
0
40448
0
0
0
0
0
40448
40448
40448
40448
40448
40448
0
0
0
0
0
0
0
0
0
0
0
0
0
0
0
0
0
0
0
0
0
0
0
0
0
0
0
0
0
40448
40448
0
0
0
0
0
0
0
0
0
0
0
0
0
0
0
40448
0
0
0
0
0
0
0
0
0
0
0
40448
40448
40448
40448
0
0
0
0
0
0
0
0
0
0
0
0
0
0
0
0
0
0
0
0
0
0
0
0
0
0
0
0
0
0
0
0
40448
0
0
0
0
0
0
0
0
0
0
0
0
0
0
40448
40448
40448
0
0
0
0
0
0
40448
0
0
40448
40448
40448
40448
40448
0
0
0
0
0
0
0
0
0
0
0
0
0
0
0
0
0
0
0
0
0
0
0
0
0
0
0
0
0
0
0
40448
40448
40448
0
0
0
0
0
0
0
0
0
0
0
0
0
0
0
40448
0
0
0
0
0
0
40448
0
0
0
40448
40448
40448
40448
0
0
0
0
0
0
0
0
0
0
0
0
0
0
0
0
0
0
0
0
0
0
0
0
0
0
0
0
0
0
0
40448
40448
40448
0
40448
0
0
0
0
0
0
0
0
0
0
0
40448
0
40448
0
0
0
0
40448
40448
40448
0
0
0
40448
40448
40448
40448
40448
0
0
0
0
0
0
0
0
0
0
0
0
0
0
0
0
0
0
0
0
0
0
0
0
0
0
0
0
0
0
0
40448
40448
0
0
0
0
0
0
0
0
0
0
0
0
0
0
0
0
0
0
0
40448
40448
40448
40448
0
0
0
0
40448
40448
40448
40448
0
0
0
0
0
0
0
0
0
0
0
0
0
0
0
0
0
0
0
0
0
0
0
0
0
0
0
0
0
0
0
40448
40448
0
0
0
0
0
0
0
0
0
0
0
0
0
0
0
0
0
0
0
40448
40448
0
0
0
0
0
0
0
40448
40448
40448
0
0
0
0
0
0
0
0
0
0
0
0
0
0
0
0
0
0
0
0
0
0
0
0
0
0
0
0
0
0
0
0
40448
40448
0
0
0
40448
0
0
0
0
0
0
0
0
0
0
40448
0
0
0
40448
0
0
0
0
0
0
0
0
40448
40448
0
0
0
0
0
0
0
0
0
0
0
0
0
0
0
0
0
0
0
0
0
0
0
0
0
0
0
0
0
0
0
0
0
40448
40448
40448
0
0
0
0
0
0
0
0
0
0
0
0
0
40448
0
0
0
0
0
0
0
0
0
0
0
0
0
0
0
0
0
0
0
0
0
0
0
0
0
0
0
0
0
0
0
0
0
0
0
0
0
0
0
0
0
0
0
0
0
0
0
40448
40448
40448
0
0
0
0
0
0
0
0
0
0
0
0
0
0
0
0
0
0
0
0
0
0
0
0
0
0
0
0
0
0
0
0
0
0
0
0
0
0
0
0
0
0
0
0
0
0
0
0
0
0
0
0
0
0
0
0
0
0
0
0
0
0
40448
40448
40448
40448
40448
40448
0
0
0
0
0
0
0
0
0
0
0
0
0
0
0
0
0
0
40448
40448
0
0
0
0
0
0
0
0
0
0
0
0
0
0
0
0
0
0
0
0
0
0
0
0
0
0
0
0
0
0
0
0
0
0
0
0
0
0
0
40448
40448
40448
40448
40448
40448
0
40448
40448
0
0
0
0
0
0
0
0
0
0
0
0
40448
40448
40448
40448
40448
40448
0
0
0
0
0
0
0
0
0
0
0
0
0
0
0
0
0
0
0
0
0
0
0
0
0
0
0
0
0
0
0
0
0
0
0
0
0
40448
40448
40448
40448
40448
40448
40448
40448
40448
0
0
0
0
0
0
0
0
0
0
0
40448
40448
40448
40448
40448
40448
0
0
0
0
0
0
0
0
0
0
0
0
0
0
0
0
0
0
0
0
0
0
0
0
0
0
0
0
0
0
0
0
0
0
0
0
0
0
0
40448
40448
40448
40448
40448
40448
40448
40448
40448
40448
0
0
0
0
0
0
0
0
40448
40448
40448
40448
40448
40448
40448
0
0
0
0
0
0
0
0
0
0
0
0
0
0
0
0
0
0
0
0
0
0
0
0
0
0
0
0
0
0
0
0
0
0
0
0
0
0
0
0
40448
40448
40448
40448
40448
40448
40448
40448
40448
40448
40448
40448
40448
40448
40448
40448
40448
40448
40448
40448
40448
40448
40448
0
0
0
0
0
0
0
0
0
0
0
0
0
0
0
0
0
0
0
0
0
0
0
0
0
0
0
0
0
0
0
0
0
0
0
0
0
0
0
0
0
0
40448
40448
40448
40448
40448
40448
40448
40448
40448
40448
40448
40448
40448
40448
40448
40448
40448
40448
40448
40448
40448
0
0
0
0
0
0
0
0
0
0
0
0
0
0
0
0
0
0
0
0
0
0
0
0
0
0
0
0
0
0
0
0
0
0
0
0
0
0
0
0
0
0
0
0
0
40448
40448
40448
40448
40448
40448
40448
40448
40448
40448
40448
40448
40448
40448
40448
40448
40448
40448
0
0
0
0
0
0
0
0
0
0
0
0
0
0
0
0
0
0
0
0
0
0
0
0
0
0
0
0
0
0
0
0
0
0
0
0
0
0
0
0
0
0
0
0
0
0
0
40448
40448
40448
40448
40448
40448
40448
40448
40448
40448
40448
40448
40448
40448
40448
0
0
0
0
0
0
0
0
0
0
0
0
0
0
0
0
0
0
0
0
0
0
0
0
0
0
0
0
0
0
0
0
0
0
0
0
0
0
0
0
0
0
0
0
0
0
0
0
0
0
0
40448
40448
40448
40448
40448
40448
40448
40448
40448
40448
40448
0
0
0
0
0
0
0
0
0
0
0
0
0
0
0
0
0
0
0
0
0
0
0
0
0
0
0
0
0
0
0
0
0
0
0
0
0
0
0
0
0
0
0
0
0
0
0
0
0
0
0
0
0
0
0
0
0
0
0
0
0
0
0
0
0
0
0
0
0
0
0
0
0
0
0
0
0
0
0
0
0
0
0
0
0
0
0
0
0
0
0
0
0
0
0
0
0
0
0
0
0
0
0
0
0
0
0
0
0
0
0
0
0
0
0
0
0
0
0
0
0
0
0
0
0
0
0
0
0
0
0
0
0
0
0
0
0
0
0
0
0
0
0
0
0
0
0
0
0
0
0
0
0
0
0
0
0
0
0
0
0
0
0
0
0
0
0
0
0
0
0
0
0
0
0
0
0
0
0
0
0
0
0
0
0
0
0
0
0
0
0
0
0
0
0
0
0
0
0
0
0
0
0
0
0
0
0
0
0
0
0
0
0
0
0
0
0
0
0
0
0
0
0
0
0
0
0
0
0
0
0
0
0
0
0
0
0
0
0
0
0
0
0
0
0
0
0
0
0
0
0
0
0
0
0
0
0
0
0
0
0
0
0
0
0
0
0
0
0
0
0
0
0
0
0
0
0
0
0
0
0
0
0
0
0
0
0
0
0
0
0
0
0
0
0
0
0
0
0
0
0
0
0
0
0
0
0
0
0
0
0
0
0
0
0
0
0
0
0
0
0
0
0
0
0
0
0
0
0
0
0
0
0
0
0
0
0
0
0
0
0
0
0
0
0
0
0
